<svg xmlns="http://www.w3.org/2000/svg" width="10.769" height="23.053" viewBox="0 0 10.769 23.053">
  <g id="row" transform="translate(-4.876 -5.512)">
    <path id="Path_144" data-name="Path 144" d="M13.627,198.129a1.944,1.944,0,0,0-1.853-1.345H8.747a1.944,1.944,0,0,0-1.853,1.345l-1.961,6.028a1.139,1.139,0,0,0-.053.456,1.155,1.155,0,0,0,2.249.259l.332-1.022v8.925a1.169,1.169,0,0,0,2.337,0v-6.983h.923v6.983a1.169,1.169,0,0,0,2.337,0v-8.925l.332,1.022a1.155,1.155,0,0,0,2.249-.259,1.137,1.137,0,0,0-.053-.456Z" transform="translate(0 -185.379)"/>
    <path id="Path_145" data-name="Path 145" d="M55.623,100.048a2.543,2.543,0,0,0,3.362-2.4,2.543,2.543,0,1,0-3.362,2.4Z" transform="translate(-46.181 -89.596)"/>
  </g>
</svg>
