<svg xmlns="http://www.w3.org/2000/svg" width="16.488" height="24.959" viewBox="0 0 16.488 24.959">
  <g id="row" transform="translate(-4.876 -3.606)">
    <path id="Path_141" data-name="Path 141" d="M146.994,165.238a1.944,1.944,0,0,0-1.853-1.346h-3.028a1.925,1.925,0,0,0-1.4.629c-.067.091-.14.178-.216.262a1.971,1.971,0,0,0-.116.227,2.893,2.893,0,0,1,1.8,1.84l1.96,6.027a2.094,2.094,0,0,1-.053,1.448v5.559a1.169,1.169,0,0,0,2.337,0v-8.925l.332,1.022a1.155,1.155,0,0,0,2.249-.259,1.137,1.137,0,0,0-.053-.456Z" transform="translate(-127.648 -154.393)" fill="rgba(0,0,0,0.75)"/>
    <path id="Path_142" data-name="Path 142" d="M163,361.827a2.125,2.125,0,0,1-.477-.054v5.4a1.137,1.137,0,0,0,.336.068,1.169,1.169,0,0,0,1.169-1.169v-4.536a1.793,1.793,0,0,1-1.028.291Z" transform="translate(-148.507 -340.582)" fill="rgba(0,0,0,0.75)"/>
    <path id="Path_143" data-name="Path 143" d="M154.295,67.157a2.543,2.543,0,0,0,3.362-2.4,2.543,2.543,0,1,0-3.362,2.4Z" transform="translate(-139.134 -58.611)" fill="rgba(0,0,0,0.75)"/>
    <path id="Path_144" data-name="Path 144" d="M13.627,198.129a1.944,1.944,0,0,0-1.853-1.345H8.747a1.944,1.944,0,0,0-1.853,1.345l-1.961,6.028a1.139,1.139,0,0,0-.053.456,1.155,1.155,0,0,0,2.249.259l.332-1.022v8.925a1.169,1.169,0,0,0,2.337,0v-6.983h.923v6.983a1.169,1.169,0,0,0,2.337,0v-8.925l.332,1.022a1.155,1.155,0,0,0,2.249-.259,1.137,1.137,0,0,0-.053-.456Z" transform="translate(0 -185.379)"/>
    <path id="Path_145" data-name="Path 145" d="M55.623,100.048a2.543,2.543,0,0,0,3.362-2.4,2.543,2.543,0,1,0-3.362,2.4Z" transform="translate(-46.181 -89.596)"/>
  </g>
</svg>
