<svg xmlns="http://www.w3.org/2000/svg" width="28" height="28.565" viewBox="0 0 28 28.565">
  <g id="row" transform="translate(-4.876)">
    <path id="Path_135" data-name="Path 135" d="M360.344,295.447a2.123,2.123,0,0,1-.477-.054v5.592a1.152,1.152,0,0,0,.41.083,1.169,1.169,0,0,0,1.169-1.169v-4.78a1.928,1.928,0,0,1-1.1.328Z" transform="translate(-334.416 -278.014)" fill="rgba(0,0,0,0.55)"/>
    <path id="Path_136" data-name="Path 136" d="M348.782,109.049l-1.961-6.028a1.944,1.944,0,0,0-1.853-1.345H341.94a1.926,1.926,0,0,0-1.662.972,2.888,2.888,0,0,1,1.656,1.778l1.96,6.027a1.689,1.689,0,0,1,.021,1.151v6.062a1.169,1.169,0,0,0,2.337,0v-8.925l.332,1.022a1.155,1.155,0,0,0,2.249-.259A1.134,1.134,0,0,0,348.782,109.049Z" transform="translate(-315.963 -95.782)" fill="rgba(0,0,0,0.55)"/>
    <path id="Path_137" data-name="Path 137" d="M352.919,4.94a2.359,2.359,0,0,0,1.637,0,2.543,2.543,0,1,0-1.637,0Z" transform="translate(-326.246)" fill="rgba(0,0,0,0.55)"/>
    <path id="Path_138" data-name="Path 138" d="M261.671,328.936a2.13,2.13,0,0,1-.477-.054v5.4a1.139,1.139,0,0,0,.337.068,1.168,1.168,0,0,0,1.169-1.169v-4.536a2.073,2.073,0,0,1-.374.186A2.1,2.1,0,0,1,261.671,328.936Z" transform="translate(-241.462 -309.597)" fill="rgba(0,0,0,0.65)"/>
    <path id="Path_139" data-name="Path 139" d="M245.669,132.346A1.944,1.944,0,0,0,243.816,131h-3.028a1.924,1.924,0,0,0-1.4.629c-.068.091-.14.178-.216.262a1.951,1.951,0,0,0-.116.227,2.892,2.892,0,0,1,1.8,1.84l1.96,6.028a2.085,2.085,0,0,1,.1.832,2.108,2.108,0,0,1-.149.616v5.559a1.169,1.169,0,0,0,2.337,0v-8.925l.332,1.022a1.155,1.155,0,0,0,2.249-.259,1.137,1.137,0,0,0-.053-.456Z" transform="translate(-220.604 -123.408)" fill="rgba(0,0,0,0.65)"/>
    <path id="Path_140" data-name="Path 140" d="M252.969,34.266a2.543,2.543,0,0,0,3.362-2.4,2.543,2.543,0,1,0-3.362,2.4Z" transform="translate(-232.089 -27.626)" fill="rgba(0,0,0,0.65)"/>
    <path id="Path_141" data-name="Path 141" d="M146.994,165.238a1.944,1.944,0,0,0-1.853-1.346h-3.028a1.925,1.925,0,0,0-1.4.629c-.067.091-.14.178-.216.262a1.971,1.971,0,0,0-.116.227,2.893,2.893,0,0,1,1.8,1.84l1.96,6.027a2.094,2.094,0,0,1-.053,1.448v5.559a1.169,1.169,0,0,0,2.337,0v-8.925l.332,1.022a1.155,1.155,0,0,0,2.249-.259,1.137,1.137,0,0,0-.053-.456Z" transform="translate(-127.648 -154.393)" fill="rgba(0,0,0,0.75)"/>
    <path id="Path_142" data-name="Path 142" d="M163,361.827a2.125,2.125,0,0,1-.477-.054v5.4a1.137,1.137,0,0,0,.336.068,1.169,1.169,0,0,0,1.169-1.169v-4.536a1.793,1.793,0,0,1-1.028.291Z" transform="translate(-148.507 -340.582)" fill="rgba(0,0,0,0.75)"/>
    <path id="Path_143" data-name="Path 143" d="M154.295,67.157a2.543,2.543,0,0,0,3.362-2.4,2.543,2.543,0,1,0-3.362,2.4Z" transform="translate(-139.134 -58.611)" fill="rgba(0,0,0,0.75)"/>
    <path id="Path_144" data-name="Path 144" d="M13.627,198.129a1.944,1.944,0,0,0-1.853-1.345H8.747a1.944,1.944,0,0,0-1.853,1.345l-1.961,6.028a1.139,1.139,0,0,0-.053.456,1.155,1.155,0,0,0,2.249.259l.332-1.022v8.925a1.169,1.169,0,0,0,2.337,0v-6.983h.923v6.983a1.169,1.169,0,0,0,2.337,0v-8.925l.332,1.022a1.155,1.155,0,0,0,2.249-.259,1.137,1.137,0,0,0-.053-.456Z" transform="translate(0 -185.379)"/>
    <path id="Path_145" data-name="Path 145" d="M55.623,100.048a2.543,2.543,0,0,0,3.362-2.4,2.543,2.543,0,1,0-3.362,2.4Z" transform="translate(-46.181 -89.596)"/>
  </g>
</svg>
